<svg width="59" height="59" viewBox="0 0 59 59" fill="none" xmlns="http://www.w3.org/2000/svg">
<path fill-rule="evenodd" clip-rule="evenodd" d="M28.5221 45.8134C28.8367 46.0021 29.173 46.0856 29.4998 46.0816C29.8267 46.0856 30.163 46.0021 30.4775 45.8134L33.2684 44.1388C38.7419 40.8548 45.4359 40.3184 51.3625 42.689C53.5488 43.5635 55.9269 41.9534 55.9269 39.5987V10.9373C55.9269 9.51653 55.0619 8.23887 53.7427 7.71121C46.1094 4.65787 37.4875 5.34872 30.4378 9.57857L29.4998 10.1413L28.5619 9.57857C21.5121 5.34872 12.8903 4.65787 5.25694 7.71121C3.93777 8.23887 3.07275 9.51653 3.07275 10.9373V39.5987C3.07275 41.9534 5.45093 43.5635 7.63718 42.689C13.5637 40.3184 20.2578 40.8548 25.7312 44.1388L28.5221 45.8134ZM6.76025 11.0819V39.0744C13.6332 36.498 21.318 37.1906 27.6284 40.9768L27.6561 40.9934V13.3354L26.6647 12.7406C20.6443 9.12832 13.2904 8.51783 6.76025 11.0819ZM31.3712 40.9768L31.3436 40.9934V13.3354L32.335 12.7406C38.3554 9.12832 45.7093 8.51783 52.2394 11.0819V39.0744C45.3664 36.498 37.6817 37.1906 31.3712 40.9768Z" fill="#022D33"/>
<path d="M22.8013 46.812C17.826 43.9097 11.6737 43.9097 6.6984 46.812L6.44583 46.9593C5.56626 47.4724 5.26917 48.6014 5.78225 49.4809C6.29532 50.3605 7.42429 50.6576 8.30385 50.1445L8.55642 49.9972C12.3836 47.7647 17.1161 47.7647 20.9432 49.9972L23.6161 51.5563C27.2519 53.6772 31.7478 53.6772 35.3836 51.5563L38.0564 49.9972C41.8836 47.7647 46.6161 47.7647 50.4433 49.9972L50.6958 50.1445C51.5754 50.6576 52.7044 50.3605 53.2174 49.4809C53.7305 48.6014 53.4334 47.4724 52.5539 46.9593L52.3013 46.812C47.326 43.9097 41.1737 43.9097 36.1984 46.812L33.5256 48.3712C31.0379 49.8223 27.9618 49.8223 25.4741 48.3712L22.8013 46.812Z" fill="#022D33"/>
</svg>
