<svg width="59" height="59" viewBox="0 0 59 59" fill="none" xmlns="http://www.w3.org/2000/svg">
<path fill-rule="evenodd" clip-rule="evenodd" d="M28.5224 45.8134C28.8369 46.0021 29.1733 46.0856 29.5001 46.0816C29.8269 46.0856 30.1632 46.0021 30.4778 45.8134L33.2687 44.1388C38.7421 40.8548 45.4362 40.3184 51.3627 42.689C53.549 43.5635 55.9272 41.9534 55.9272 39.5987V10.9373C55.9272 9.51653 55.0622 8.23887 53.743 7.71121C46.1096 4.65787 37.4878 5.34872 30.438 9.57857L29.5001 10.1413L28.5622 9.57857C21.5124 5.34872 12.8905 4.65787 5.25718 7.71121C3.93801 8.23887 3.073 9.51653 3.073 10.9373V39.5987C3.073 41.9534 5.45117 43.5635 7.63743 42.689C13.564 40.3184 20.258 40.8548 25.7315 44.1388L28.5224 45.8134ZM6.7605 11.0819V39.0744C13.6335 36.498 21.3182 37.1906 27.6287 40.9768L27.6563 40.9934V13.3354L26.6649 12.7406C20.6445 9.12832 13.2907 8.51783 6.7605 11.0819ZM31.3715 40.9768L31.3438 40.9934V13.3354L32.3352 12.7406C38.3556 9.12832 45.7095 8.51783 52.2397 11.0819V39.0744C45.3667 36.498 37.6819 37.1906 31.3715 40.9768Z" fill="#706993"/>
<path d="M22.8015 46.812C17.8262 43.9097 11.674 43.9097 6.69864 46.812L6.44607 46.9593C5.5665 47.4724 5.26941 48.6014 5.78249 49.4809C6.29557 50.3605 7.42453 50.6576 8.30409 50.1445L8.55667 49.9972C12.3838 47.7647 17.1163 47.7647 20.9435 49.9972L23.6163 51.5563C27.2521 53.6772 31.748 53.6772 35.3838 51.5563L38.0567 49.9972C41.8838 47.7647 46.6163 47.7647 50.4435 49.9972L50.6961 50.1445C51.5756 50.6576 52.7046 50.3605 53.2177 49.4809C53.7308 48.6014 53.4337 47.4724 52.5541 46.9593L52.3015 46.812C47.3262 43.9097 41.174 43.9097 36.1987 46.812L33.5258 48.3712C31.0381 49.8223 27.962 49.8223 25.4744 48.3712L22.8015 46.812Z" fill="#706993"/>
</svg>
