<svg width="53" height="62" viewBox="0 0 53 62" fill="none" xmlns="http://www.w3.org/2000/svg">
<path d="M47.6924 0.650885C48.5584 1.51873 48.5584 2.92579 47.6924 3.79364L46.0648 5.42462C55.7898 16.7762 55.2871 33.8961 44.5562 44.6494C39.4912 49.725 33.0109 52.5171 26.3886 53.0259V57.5555H31.563C32.7878 57.5555 33.7806 58.5504 33.7806 59.7777C33.7806 61.0051 32.7878 62 31.563 62H16.7789C15.5541 62 14.5613 61.0051 14.5613 59.7777C14.5613 58.5504 15.5541 57.5555 16.7789 57.5555H21.9533V53.0258C16.0211 52.5698 10.2027 50.2816 5.41329 46.1612L3.78572 47.7922C2.91968 48.66 1.51556 48.66 0.649526 47.7922C-0.216509 46.9243 -0.216509 45.5173 0.649526 44.6494L2.74032 42.5543C4.20523 41.0863 6.4816 41.1613 7.90773 42.4421C12.5262 46.5897 18.3437 48.6645 24.1619 48.6664L24.1709 48.6664L24.1805 48.6664C30.4203 48.6638 36.6594 46.2772 41.42 41.5067C50.6243 32.2831 50.9356 17.5208 42.3534 7.92427C41.0753 6.49516 41.0005 4.21403 42.4654 2.74605L44.5562 0.650886C45.4222 -0.216962 46.8263 -0.216962 47.6924 0.650885Z" fill="#18314F"/>
<path fill-rule="evenodd" clip-rule="evenodd" d="M4.21236 24.2215C4.21236 13.1756 13.1481 4.22118 24.1709 4.22118C35.1938 4.22118 44.1295 13.1756 44.1295 24.2215C44.1295 35.2674 35.1938 44.2219 24.1709 44.2219C13.1481 44.2219 4.21236 35.2674 4.21236 24.2215ZM24.1709 8.6657C15.5976 8.6657 8.6476 15.6303 8.6476 24.2215C8.6476 25.2137 8.74028 26.1841 8.91745 27.1246C10.1336 25.7955 11.8807 24.9623 13.8221 24.9623C17.4963 24.9623 20.4749 27.9471 20.4749 31.6291C20.4749 34.362 18.8339 36.7109 16.4854 37.7401C18.7514 39.0366 21.3749 39.7774 24.1709 39.7774C31.6912 39.7774 37.9625 34.4186 39.3896 27.3037C37.4128 30.3531 33.9837 32.3698 30.0846 32.3698C23.9608 32.3698 18.9965 27.3951 18.9965 21.2585C18.9965 15.1219 23.9608 10.1472 30.0846 10.1472C30.3403 10.1472 30.594 10.1559 30.8453 10.173C28.8235 9.20663 26.5603 8.6657 24.1709 8.6657ZM23.4317 21.2585C23.4317 17.5766 26.4103 14.5917 30.0846 14.5917C33.7589 14.5917 36.7375 17.5766 36.7375 21.2585C36.7375 24.9405 33.7589 27.9253 30.0846 27.9253C26.4103 27.9253 23.4317 24.9405 23.4317 21.2585ZM13.8221 29.4068C12.5973 29.4068 11.6044 30.4018 11.6044 31.6291C11.6044 32.8564 12.5973 33.8513 13.8221 33.8513C15.0468 33.8513 16.0397 32.8564 16.0397 31.6291C16.0397 30.4018 15.0468 29.4068 13.8221 29.4068Z" fill="#18314F"/>
</svg>
