<svg width="63" height="63" viewBox="0 0 63 63" fill="none" xmlns="http://www.w3.org/2000/svg">
<path fill-rule="evenodd" clip-rule="evenodd" d="M39.7344 9.10788C39.3652 8.73867 38.8645 8.53125 38.3423 8.53125C37.8202 8.53125 37.3194 8.73867 36.9502 9.10788L12.8202 33.2379C12.5728 33.4852 12.3959 33.794 12.3075 34.1325L9.68246 44.1821C9.50582 44.8583 9.70096 45.5775 10.1952 46.0718C10.6894 46.566 11.4086 46.7611 12.0849 46.5845L22.1345 43.9595C22.4729 43.8711 22.7817 43.6941 23.029 43.4468L47.1591 19.3167C47.9279 18.5479 47.9279 17.3014 47.1591 16.5325L39.7344 9.10788ZM15.9821 35.6444L38.3423 13.2842L42.9827 17.9246L20.6225 40.2848L14.3415 41.9254L15.9821 35.6444Z" fill="#022D33"/>
<path d="M10.5 50.5313C9.41269 50.5313 8.53125 51.4127 8.53125 52.5C8.53125 53.5873 9.41269 54.4688 10.5 54.4688H49.875C50.9623 54.4688 51.8438 53.5873 51.8438 52.5C51.8438 51.4127 50.9623 50.5313 49.875 50.5313H10.5Z" fill="#022D33"/>
</svg>
